<svg width="50" height="50" viewBox="0 0 50 50" fill="none" xmlns="http://www.w3.org/2000/svg">
<path d="M14.7923 23.6459C15.2784 22.6737 15.7819 21.7362 16.3027 20.8334C16.8236 19.9306 17.3965 19.0278 18.0215 18.1251L15.1048 17.5521L10.7298 21.9271L14.7923 23.6459ZM39.8965 9.32297C37.4659 9.39242 34.8708 10.1042 32.1111 11.4584C29.3513 12.8126 26.8423 14.6181 24.584 16.8751C23.1257 18.3334 21.8236 19.8959 20.6777 21.5626C19.5319 23.2292 18.6812 24.7917 18.1256 26.2501L24.0632 32.1355C25.5215 31.5799 27.084 30.7292 28.7507 29.5834C30.4173 28.4376 31.9798 27.1355 33.4381 25.6771C35.6951 23.4202 37.5007 20.9202 38.8548 18.1771C40.209 15.4341 40.9208 12.8473 40.9902 10.4167C40.9902 10.2778 40.9638 10.1389 40.9111 10.0001C40.8583 9.86117 40.7805 9.73964 40.6777 9.63547C40.5736 9.53131 40.452 9.45353 40.3132 9.40214C40.1743 9.35075 40.0354 9.32436 39.8965 9.32297ZM28.4381 21.823C27.6395 21.0244 27.2402 20.0438 27.2402 18.8813C27.2402 17.7188 27.6395 16.7376 28.4381 15.9376C29.2368 15.1389 30.2263 14.7396 31.4069 14.7396C32.5875 14.7396 33.577 15.1389 34.3757 15.9376C35.1743 16.7362 35.5736 17.7174 35.5736 18.8813C35.5736 20.0452 35.1743 21.0258 34.3757 21.823C33.577 22.6216 32.5875 23.0209 31.4069 23.0209C30.2263 23.0209 29.2368 22.6216 28.4381 21.823ZM26.6673 35.4688L28.3861 39.5834L32.7611 35.2084L32.1881 32.2917C31.2854 32.9167 30.3826 33.4813 29.4798 33.9855C28.577 34.4896 27.6395 34.9841 26.6673 35.4688ZM44.9486 7.65631C45.2263 11.4758 44.6013 15.2001 43.0736 18.8292C41.5458 22.4584 39.1326 25.9216 35.834 29.2188L36.8757 34.3751C37.0145 35.0695 36.9798 35.7466 36.7715 36.4063C36.5631 37.066 36.2159 37.6389 35.7298 38.1251L29.1673 44.6876C28.6465 45.2084 28.0215 45.4084 27.2923 45.2876C26.5632 45.1667 26.0597 44.7584 25.7819 44.0626L22.6048 36.6146L13.6986 27.7084L6.25065 24.5313C5.55621 24.2535 5.13954 23.7501 5.00065 23.0209C4.86176 22.2917 5.05273 21.6667 5.57357 21.1459L12.1361 14.5834C12.6222 14.0973 13.2034 13.7501 13.8798 13.5417C14.5562 13.3334 15.2423 13.2987 15.9382 13.4376L21.0944 14.4792C24.393 11.1806 27.8569 8.76742 31.4861 7.23964C35.1152 5.71186 38.8388 5.08686 42.6569 5.36464C42.9347 5.39936 43.2125 5.47783 43.4902 5.60006C43.768 5.72228 44.0111 5.88686 44.2194 6.09381C44.4277 6.30214 44.593 6.5452 44.7152 6.82297C44.8375 7.10075 44.9152 7.37853 44.9486 7.65631ZM8.17773 33.2813C9.39301 32.066 10.8777 31.4501 12.6319 31.4334C14.3861 31.4167 15.8701 32.0153 17.084 33.2292C18.2993 34.4445 18.8986 35.9292 18.8819 37.6834C18.8652 39.4376 18.2486 40.9216 17.0319 42.1355C16.1638 43.0035 14.7145 43.7501 12.684 44.3751C10.6534 45.0001 7.84926 45.5556 4.27148 46.0417C4.7576 42.4653 5.31315 39.6612 5.93815 37.6292C6.56315 35.5973 7.30968 34.148 8.17773 33.2813ZM11.1465 36.198C10.7993 36.5452 10.452 37.1792 10.1048 38.1001C9.7576 39.0209 9.51454 39.9494 9.37565 40.8855C10.3132 40.7466 11.2423 40.5119 12.1632 40.1813C13.084 39.8507 13.7173 39.5126 14.0632 39.1667C14.4798 38.7501 14.7055 38.2466 14.7402 37.6563C14.775 37.066 14.584 36.5626 14.1673 36.1459C13.7507 35.7292 13.2472 35.5292 12.6569 35.5459C12.0666 35.5626 11.5632 35.7799 11.1465 36.198Z" fill="#22C55E"/>
</svg>
