<svg width="31" height="30" viewBox="0 0 31 30" fill="none" xmlns="http://www.w3.org/2000/svg">
<path d="M0.5 15C0.5 23.2843 7.21573 30 15.5 30C23.7843 30 30.5 23.2843 30.5 15C30.5 6.71573 23.7843 0 15.5 0C7.21573 0 0.5 6.71573 0.5 15Z" fill="#5A64D8"/>
<path d="M20.9511 9.99753C19.9536 9.53253 18.8736 9.19503 17.7486 9.00003C17.7388 8.99972 17.7289 9.00157 17.7199 9.00546C17.7108 9.00935 17.7027 9.01517 17.6961 9.02253C17.5611 9.27003 17.4036 9.59253 17.2986 9.84003C16.1054 9.66003 14.8919 9.66003 13.6986 9.84003C13.5936 9.58503 13.4361 9.27003 13.2936 9.02253C13.2861 9.00753 13.2636 9.00003 13.2411 9.00003C12.1161 9.19503 11.0436 9.53253 10.0386 9.99753C10.0311 9.99753 10.0236 10.005 10.0161 10.0125C7.97612 13.065 7.41362 16.035 7.69112 18.975C7.69112 18.99 7.69862 19.005 7.71362 19.0125C9.06362 20.0025 10.3611 20.6025 11.6436 21C11.6661 21.0075 11.6886 21 11.6961 20.985C11.9961 20.5725 12.2661 20.1375 12.4986 19.68C12.5136 19.65 12.4986 19.62 12.4686 19.6125C12.0411 19.4475 11.6361 19.2525 11.2386 19.0275C11.2086 19.0125 11.2086 18.9675 11.2311 18.945C11.3136 18.885 11.3961 18.8175 11.4786 18.7575C11.4936 18.7425 11.5161 18.7425 11.5311 18.75C14.1111 19.9275 16.8936 19.9275 19.4436 18.75C19.4586 18.7425 19.4811 18.7425 19.4961 18.7575C19.5786 18.825 19.6611 18.885 19.7436 18.9525C19.7736 18.975 19.7736 19.02 19.7361 19.035C19.3461 19.2675 18.9336 19.455 18.5061 19.62C18.4761 19.6275 18.4686 19.665 18.4761 19.6875C18.7161 20.145 18.9861 20.58 19.2786 20.9925C19.3011 21 19.3236 21.0075 19.3461 21C20.6361 20.6025 21.9336 20.0025 23.2836 19.0125C23.2986 19.005 23.3061 18.99 23.3061 18.975C23.6361 15.5775 22.7586 12.63 20.9811 10.0125C20.9736 10.005 20.9661 9.99753 20.9511 9.99753ZM12.8886 17.1825C12.1161 17.1825 11.4711 16.47 11.4711 15.5925C11.4711 14.715 12.1011 14.0025 12.8886 14.0025C13.6836 14.0025 14.3136 14.7225 14.3061 15.5925C14.3061 16.47 13.6761 17.1825 12.8886 17.1825ZM18.1161 17.1825C17.3436 17.1825 16.6986 16.47 16.6986 15.5925C16.6986 14.715 17.3286 14.0025 18.1161 14.0025C18.9111 14.0025 19.5411 14.7225 19.5336 15.5925C19.5336 16.47 18.9111 17.1825 18.1161 17.1825Z" fill="#F7F8F9"/>
</svg>
