<svg width="31" height="30" viewBox="0 0 31 30" fill="none" xmlns="http://www.w3.org/2000/svg">
<path d="M0.5 15C0.5 23.2843 7.21573 30 15.5 30C23.7843 30 30.5 23.2843 30.5 15C30.5 6.71573 23.7843 0 15.5 0C7.21573 0 0.5 6.71573 0.5 15Z" fill="#1DA1F2"/>
<path d="M23 10.3125C22.4375 10.5938 21.875 10.6875 21.2188 10.7812C21.875 10.4062 22.3438 9.84375 22.5312 9.09375C21.9688 9.46875 21.3125 9.65625 20.5625 9.84375C20 9.28125 19.1562 8.90625 18.3125 8.90625C16.3438 8.90625 14.8438 10.7812 15.3125 12.6562C12.7812 12.5625 10.5312 11.3438 8.9375 9.46875C8.09375 10.875 8.5625 12.6562 9.875 13.5938C9.40625 13.5938 8.9375 13.4063 8.46875 13.2188C8.46875 14.625 9.5 15.9375 10.9063 16.3125C10.4375 16.4062 9.96875 16.5 9.5 16.4062C9.875 17.625 11 18.5625 12.4062 18.5625C11.2812 19.4062 9.59375 19.875 8 19.6875C9.40625 20.5312 11 21.0938 12.6875 21.0938C18.4062 21.0938 21.5937 16.3125 21.4062 11.9062C22.0625 11.5312 22.625 10.9688 23 10.3125Z" fill="white"/>
</svg>
