<svg width="31" height="30" viewBox="0 0 31 30" fill="none" xmlns="http://www.w3.org/2000/svg">
<path d="M0.5 15C0.5 23.2843 7.21573 30 15.5 30C23.7843 30 30.5 23.2843 30.5 15C30.5 6.71573 23.7843 0 15.5 0C7.21573 0 0.5 6.71573 0.5 15Z" fill="#22C55E"/>
<path d="M20.9531 9.99753C19.9556 9.53253 18.8756 9.19503 17.7506 9.00003C17.7407 8.99972 17.7309 9.00157 17.7218 9.00546C17.7128 9.00935 17.7047 9.01517 17.6981 9.02253C17.5631 9.27003 17.4056 9.59253 17.3006 9.84003C16.1073 9.66003 14.8938 9.66003 13.7006 9.84003C13.5956 9.58503 13.4381 9.27003 13.2956 9.02253C13.2881 9.00753 13.2656 9.00003 13.2431 9.00003C12.1181 9.19503 11.0456 9.53253 10.0406 9.99753C10.0331 9.99753 10.0256 10.005 10.0181 10.0125C7.97808 13.065 7.41558 16.035 7.69308 18.975C7.69308 18.99 7.70058 19.005 7.71558 19.0125C9.06558 20.0025 10.3631 20.6025 11.6456 21C11.6681 21.0075 11.6906 21 11.6981 20.985C11.9981 20.5725 12.2681 20.1375 12.5006 19.68C12.5156 19.65 12.5006 19.62 12.4706 19.6125C12.0431 19.4475 11.6381 19.2525 11.2406 19.0275C11.2106 19.0125 11.2106 18.9675 11.2331 18.945C11.3156 18.885 11.3981 18.8175 11.4806 18.7575C11.4956 18.7425 11.5181 18.7425 11.5331 18.75C14.1131 19.9275 16.8956 19.9275 19.4456 18.75C19.4606 18.7425 19.4831 18.7425 19.4981 18.7575C19.5806 18.825 19.6631 18.885 19.7456 18.9525C19.7756 18.975 19.7756 19.02 19.7381 19.035C19.3481 19.2675 18.9356 19.455 18.5081 19.62C18.4781 19.6275 18.4706 19.665 18.4781 19.6875C18.7181 20.145 18.9881 20.58 19.2806 20.9925C19.3031 21 19.3256 21.0075 19.3481 21C20.6381 20.6025 21.9356 20.0025 23.2856 19.0125C23.3006 19.005 23.3081 18.99 23.3081 18.975C23.6381 15.5775 22.7606 12.63 20.9831 10.0125C20.9756 10.005 20.9681 9.99753 20.9531 9.99753ZM12.8906 17.1825C12.1181 17.1825 11.4731 16.47 11.4731 15.5925C11.4731 14.715 12.1031 14.0025 12.8906 14.0025C13.6856 14.0025 14.3156 14.7225 14.3081 15.5925C14.3081 16.47 13.6781 17.1825 12.8906 17.1825ZM18.1181 17.1825C17.3456 17.1825 16.7006 16.47 16.7006 15.5925C16.7006 14.715 17.3306 14.0025 18.1181 14.0025C18.9131 14.0025 19.5431 14.7225 19.5356 15.5925C19.5356 16.47 18.9131 17.1825 18.1181 17.1825Z" fill="#F7F8F9"/>
</svg>
