<svg width="170" height="34" viewBox="0 0 170 34" fill="none" xmlns="http://www.w3.org/2000/svg">
<path fill-rule="evenodd" clip-rule="evenodd" d="M22.3027 30.0889C22.3028 30.0889 22.3023 30.0909 22.3007 30.0948C22.3017 30.0908 22.3025 30.0889 22.3027 30.0889ZM22.2672 30.1511C22.2245 30.091 22.1337 29.9884 21.9473 29.8468C21.5316 29.5308 20.8362 29.1826 19.8436 28.8635C17.8752 28.2308 15.0631 27.8154 11.8905 27.8154C8.71792 27.8154 5.90588 28.2308 3.93748 28.8635C2.94489 29.1826 2.24946 29.5308 1.83372 29.8468C1.64733 29.9884 1.55658 30.091 1.51387 30.1511C1.55658 30.2111 1.64733 30.3137 1.83372 30.4554C2.24946 30.7713 2.94489 31.1195 3.93748 31.4386C5.90588 32.0713 8.71792 32.4867 11.8905 32.4867C15.0631 32.4867 17.8752 32.0713 19.8436 31.4386C20.8362 31.1195 21.5316 30.7713 21.9473 30.4554C22.1337 30.3137 22.2245 30.2111 22.2672 30.1511ZM1.47839 30.0889C1.47853 30.0889 1.47935 30.0909 1.48041 30.0948C1.47877 30.0909 1.47824 30.0889 1.47839 30.0889ZM1.47839 30.2132C1.47824 30.2132 1.47877 30.2112 1.48041 30.2073C1.47935 30.2113 1.47853 30.2132 1.47839 30.2132ZM22.3007 30.2073C22.3023 30.2112 22.3028 30.2132 22.3027 30.2132C22.3025 30.2132 22.3017 30.2113 22.3007 30.2073ZM11.8905 33.973C18.4575 33.973 23.7811 32.2619 23.7811 30.1511C23.7811 28.0402 18.4575 26.3291 11.8905 26.3291C5.32357 26.3291 0 28.0402 0 30.1511C0 32.2619 5.32357 33.973 11.8905 33.973Z" fill="url(#paint0_linear_36_855)"/>
<path d="M11.691 21.7313L21.0557 16.6838L11.691 30.5757L2.37054 16.6838L11.691 21.7313Z" fill="url(#paint1_linear_36_855)"/>
<path d="M2.37054 13.8473L11.691 8.82208L21.0557 13.8696L11.691 2.94289e-05L2.37054 13.8473Z" fill="url(#paint2_linear_36_855)"/>
<path d="M42.4829 23.7811H35.5015V11.6527H42.4829V13.759H38.0664V16.4259H42.1772V18.5322H38.0664V21.6578H42.4829V23.7811Z" fill="white" fill-opacity="0.85"/>
<path d="M49.6779 23.7811H47.1129V13.793H43.8175V11.6527H52.9733V13.793H49.6779V23.7811Z" fill="white" fill-opacity="0.85"/>
<path d="M59.6586 13.6231C59.1717 13.6231 58.7357 13.7194 58.3507 13.9119C57.977 14.1044 57.6599 14.3819 57.3994 14.7443C57.139 15.0953 56.9408 15.5256 56.8049 16.0352C56.6803 16.5448 56.618 17.1167 56.618 17.7509C56.618 18.6115 56.72 19.3476 56.9238 19.9591C57.139 20.5593 57.473 21.0179 57.926 21.335C58.379 21.6521 58.9565 21.8106 59.6586 21.8106C60.1569 21.8106 60.6495 21.754 61.1364 21.6408C61.6347 21.5275 62.1726 21.369 62.7502 21.1651V23.3224C62.2179 23.5376 61.6913 23.6961 61.1704 23.798C60.6495 23.9 60.0663 23.9509 59.4208 23.9509C58.1751 23.9509 57.1446 23.6961 56.3293 23.1865C55.5252 22.6656 54.9307 21.9409 54.5457 21.0123C54.1607 20.0723 53.9682 18.9796 53.9682 17.7339C53.9682 16.8166 54.0927 15.9786 54.3419 15.2199C54.591 14.4498 54.9534 13.7873 55.429 13.2325C55.9159 12.6776 56.5105 12.2472 57.2126 11.9415C57.926 11.6357 58.7414 11.4829 59.6586 11.4829C60.2588 11.4829 60.859 11.5621 61.4592 11.7207C62.0707 11.8679 62.6539 12.0717 63.2088 12.3322L62.3765 14.4215C61.9235 14.2064 61.4649 14.0195 61.0006 13.861C60.5476 13.7024 60.1003 13.6231 59.6586 13.6231Z" fill="white" fill-opacity="0.85"/>
<path d="M74.8867 13.6231C74.3998 13.6231 73.9638 13.7194 73.5788 13.9119C73.2051 14.1044 72.888 14.3819 72.6275 14.7443C72.3671 15.0953 72.1689 15.5256 72.033 16.0352C71.9084 16.5448 71.8462 17.1167 71.8462 17.7509C71.8462 18.6115 71.9481 19.3476 72.1519 19.9591C72.3671 20.5593 72.7011 21.0179 73.1541 21.335C73.6071 21.6521 74.1846 21.8106 74.8867 21.8106C75.385 21.8106 75.8776 21.754 76.3646 21.6408C76.8628 21.5275 77.4007 21.369 77.9783 21.1651V23.3224C77.446 23.5376 76.9194 23.6961 76.3985 23.798C75.8776 23.9 75.2944 23.9509 74.6489 23.9509C73.4033 23.9509 72.3727 23.6961 71.5574 23.1865C70.7534 22.6656 70.1588 21.9409 69.7738 21.0123C69.3888 20.0723 69.1963 18.9796 69.1963 17.7339C69.1963 16.8166 69.3208 15.9786 69.57 15.2199C69.8191 14.4498 70.1815 13.7873 70.6571 13.2325C71.1441 12.6776 71.7386 12.2472 72.4407 11.9415C73.1541 11.6357 73.9695 11.4829 74.8867 11.4829C75.4869 11.4829 76.0871 11.5621 76.6873 11.7207C77.2988 11.8679 77.882 12.0717 78.4369 12.3322L77.6046 14.4215C77.1516 14.2064 76.693 14.0195 76.2287 13.861C75.7757 13.7024 75.3284 13.6231 74.8867 13.6231Z" fill="white" fill-opacity="0.85"/>
<path d="M88.7769 19.1268C88.7769 19.8968 88.6693 20.5819 88.4542 21.1821C88.2503 21.7823 87.9502 22.2919 87.5539 22.7109C87.1688 23.1186 86.6989 23.43 86.144 23.6452C85.5891 23.849 84.9606 23.9509 84.2585 23.9509C83.613 23.9509 83.0128 23.849 82.4579 23.6452C81.9144 23.43 81.4444 23.1186 81.0481 22.7109C80.6517 22.2919 80.3403 21.7823 80.1138 21.1821C79.8986 20.5819 79.791 19.8968 79.791 19.1268C79.791 18.0963 79.9722 17.2299 80.3346 16.5278C80.697 15.8144 81.2179 15.2708 81.8974 14.8971C82.5768 14.5234 83.3809 14.3366 84.3095 14.3366C85.1814 14.3366 85.9515 14.5234 86.6196 14.8971C87.2878 15.2708 87.8143 15.8144 88.1994 16.5278C88.5844 17.2299 88.7769 18.0963 88.7769 19.1268ZM82.373 19.1268C82.373 19.7383 82.4353 20.2535 82.5598 20.6725C82.6957 21.0802 82.9052 21.3916 83.1883 21.6068C83.4715 21.8106 83.8395 21.9125 84.2925 21.9125C84.7454 21.9125 85.1078 21.8106 85.3796 21.6068C85.6627 21.3916 85.8666 21.0802 85.9911 20.6725C86.127 20.2535 86.195 19.7383 86.195 19.1268C86.195 18.5153 86.127 18.0057 85.9911 17.598C85.8666 17.1903 85.6627 16.8846 85.3796 16.6807C85.0965 16.4769 84.7285 16.375 84.2755 16.375C83.6073 16.375 83.1204 16.6071 82.8146 17.0714C82.5202 17.5244 82.373 18.2095 82.373 19.1268Z" fill="white" fill-opacity="0.85"/>
<path d="M99.2939 19.1268C99.2939 19.8968 99.1863 20.5819 98.9712 21.1821C98.7673 21.7823 98.4672 22.2919 98.0709 22.7109C97.6859 23.1186 97.2159 23.43 96.661 23.6452C96.1061 23.849 95.4776 23.9509 94.7755 23.9509C94.13 23.9509 93.5298 23.849 92.9749 23.6452C92.4314 23.43 91.9614 23.1186 91.5651 22.7109C91.1687 22.2919 90.8573 21.7823 90.6308 21.1821C90.4157 20.5819 90.3081 19.8968 90.3081 19.1268C90.3081 18.0963 90.4893 17.2299 90.8516 16.5278C91.214 15.8144 91.7349 15.2708 92.4144 14.8971C93.0939 14.5234 93.8979 14.3366 94.8265 14.3366C95.6984 14.3366 96.4685 14.5234 97.1366 14.8971C97.8048 15.2708 98.3313 15.8144 98.7164 16.5278C99.1014 17.2299 99.2939 18.0963 99.2939 19.1268ZM92.89 19.1268C92.89 19.7383 92.9523 20.2535 93.0769 20.6725C93.2128 21.0802 93.4223 21.3916 93.7054 21.6068C93.9885 21.8106 94.3565 21.9125 94.8095 21.9125C95.2625 21.9125 95.6248 21.8106 95.8966 21.6068C96.1797 21.3916 96.3836 21.0802 96.5081 20.6725C96.644 20.2535 96.712 19.7383 96.712 19.1268C96.712 18.5153 96.644 18.0057 96.5081 17.598C96.3836 17.1903 96.1797 16.8846 95.8966 16.6807C95.6135 16.4769 95.2455 16.375 94.7925 16.375C94.1244 16.375 93.6374 16.6071 93.3317 17.0714C93.0372 17.5244 92.89 18.2095 92.89 19.1268Z" fill="white" fill-opacity="0.85"/>
<path d="M106.55 14.3366C107.591 14.3366 108.435 14.7443 109.081 15.5596C109.726 16.3636 110.049 17.5527 110.049 19.1268C110.049 20.1799 109.896 21.0689 109.59 21.7936C109.284 22.5071 108.865 23.045 108.333 23.4074C107.801 23.7697 107.184 23.9509 106.482 23.9509C106.04 23.9509 105.655 23.8943 105.327 23.7811C105.009 23.6678 104.738 23.5206 104.511 23.3394C104.285 23.1582 104.086 22.9657 103.917 22.7619H103.781C103.826 22.977 103.86 23.2035 103.883 23.4413C103.905 23.6678 103.917 23.8943 103.917 24.1208V27.8578H101.386V14.5064H103.441L103.798 15.7125H103.917C104.086 15.4633 104.29 15.2369 104.528 15.033C104.766 14.8179 105.049 14.648 105.377 14.5234C105.717 14.3989 106.108 14.3366 106.55 14.3366ZM105.734 16.358C105.293 16.358 104.941 16.4486 104.681 16.6298C104.421 16.8109 104.228 17.0884 104.103 17.4621C103.99 17.8245 103.928 18.2831 103.917 18.838V19.1098C103.917 19.71 103.973 20.2196 104.086 20.6386C104.2 21.0462 104.392 21.3577 104.664 21.5728C104.936 21.788 105.304 21.8956 105.768 21.8956C106.153 21.8956 106.47 21.788 106.719 21.5728C106.969 21.3577 107.155 21.0406 107.28 20.6216C107.405 20.2026 107.467 19.693 107.467 19.0928C107.467 18.1868 107.325 17.5074 107.042 17.0544C106.77 16.5901 106.334 16.358 105.734 16.358Z" fill="white" fill-opacity="0.85"/>
<path d="M115.957 14.3366C116.818 14.3366 117.554 14.5008 118.165 14.8292C118.788 15.1576 119.269 15.6332 119.609 16.2561C119.949 16.8789 120.119 17.6433 120.119 18.5492V19.7723H114.139C114.162 20.4857 114.371 21.0462 114.768 21.4539C115.175 21.8616 115.736 22.0654 116.449 22.0654C117.05 22.0654 117.593 22.0088 118.08 21.8956C118.567 21.771 119.071 21.5841 119.592 21.335V23.2885C119.139 23.5149 118.658 23.6791 118.148 23.7811C117.65 23.8943 117.044 23.9509 116.331 23.9509C115.402 23.9509 114.581 23.7811 113.868 23.4413C113.154 23.0903 112.594 22.5637 112.186 21.8616C111.778 21.1595 111.574 20.2762 111.574 19.2117C111.574 18.1246 111.756 17.2243 112.118 16.5108C112.492 15.7861 113.007 15.2425 113.664 14.8801C114.32 14.5178 115.085 14.3366 115.957 14.3366ZM115.974 16.1371C115.487 16.1371 115.079 16.2957 114.751 16.6128C114.434 16.9298 114.247 17.4225 114.19 18.0906H117.74C117.74 17.7169 117.672 17.3828 117.537 17.0884C117.412 16.794 117.22 16.5618 116.959 16.3919C116.699 16.2221 116.37 16.1371 115.974 16.1371Z" fill="white" fill-opacity="0.85"/>
<path d="M127.352 14.3366C127.476 14.3366 127.624 14.3422 127.793 14.3536C127.963 14.3649 128.099 14.3819 128.201 14.4045L128.014 16.7826C127.935 16.76 127.816 16.743 127.657 16.7317C127.51 16.709 127.38 16.6977 127.267 16.6977C126.938 16.6977 126.621 16.743 126.316 16.8336C126.01 16.9129 125.732 17.0431 125.483 17.2243C125.245 17.4055 125.053 17.6489 124.906 17.9547C124.77 18.2491 124.702 18.6172 124.702 19.0588V23.7811H122.171V14.5064H124.09L124.464 16.0692H124.583C124.764 15.7521 124.991 15.4633 125.262 15.2029C125.534 14.9424 125.846 14.7329 126.197 14.5744C126.559 14.4158 126.944 14.3366 127.352 14.3366Z" fill="white" fill-opacity="0.85"/>
<path d="M133.358 14.3196C134.603 14.3196 135.555 14.5914 136.211 15.1349C136.88 15.6672 137.214 16.4882 137.214 17.598V23.7811H135.447L134.954 22.5241H134.886C134.626 22.8525 134.354 23.1243 134.071 23.3394C133.799 23.5546 133.482 23.7075 133.12 23.798C132.769 23.9 132.333 23.9509 131.812 23.9509C131.268 23.9509 130.776 23.849 130.334 23.6452C129.904 23.43 129.564 23.1073 129.315 22.6769C129.066 22.2353 128.941 21.6804 128.941 21.0123C128.941 20.0271 129.287 19.3023 129.977 18.838C130.668 18.3624 131.704 18.1019 133.086 18.0566L134.7 18.0057V17.598C134.7 17.111 134.569 16.7543 134.309 16.5278C134.06 16.3013 133.709 16.1881 133.256 16.1881C132.803 16.1881 132.361 16.2561 131.931 16.3919C131.5 16.5165 131.07 16.6751 130.64 16.8676L129.807 15.1519C130.306 14.8915 130.855 14.6876 131.455 14.5404C132.067 14.3932 132.701 14.3196 133.358 14.3196ZM133.714 19.5175C132.899 19.5401 132.333 19.6873 132.016 19.9591C131.699 20.2309 131.54 20.5876 131.54 21.0293C131.54 21.4143 131.653 21.6917 131.88 21.8616C132.106 22.0201 132.401 22.0994 132.763 22.0994C133.307 22.0994 133.765 21.9409 134.139 21.6238C134.513 21.2954 134.7 20.8367 134.7 20.2479V19.4835L133.714 19.5175Z" fill="white" fill-opacity="0.85"/>
<path d="M143.711 21.9295C143.994 21.9295 144.266 21.9012 144.527 21.8446C144.787 21.788 145.047 21.72 145.308 21.6408V23.5263C145.036 23.6395 144.696 23.7358 144.289 23.815C143.892 23.9056 143.456 23.9509 142.981 23.9509C142.426 23.9509 141.928 23.8603 141.486 23.6791C141.056 23.498 140.71 23.1865 140.45 22.7449C140.201 22.2919 140.076 21.6691 140.076 20.8764V16.4089H138.87V15.3388L140.263 14.4895L140.993 12.536H142.607V14.5064H145.206V16.4089H142.607V20.8764C142.607 21.2274 142.709 21.4935 142.913 21.6747C143.117 21.8446 143.383 21.9295 143.711 21.9295Z" fill="white" fill-opacity="0.85"/>
<path d="M149.7 14.5064V23.7811H147.17V14.5064H149.7ZM148.443 10.8713C148.817 10.8713 149.14 10.9619 149.412 11.1431C149.684 11.313 149.819 11.6357 149.819 12.1114C149.819 12.5756 149.684 12.8984 149.412 13.0796C149.14 13.2608 148.817 13.3514 148.443 13.3514C148.058 13.3514 147.73 13.2608 147.458 13.0796C147.198 12.8984 147.068 12.5756 147.068 12.1114C147.068 11.6357 147.198 11.313 147.458 11.1431C147.73 10.9619 148.058 10.8713 148.443 10.8713Z" fill="white" fill-opacity="0.85"/>
<path d="M154.553 23.7811L151.02 14.5064H153.67L155.454 19.7892C155.522 19.9931 155.578 20.2082 155.623 20.4347C155.68 20.6612 155.72 20.882 155.742 21.0972C155.776 21.3124 155.799 21.5105 155.81 21.6917H155.878C155.89 21.4992 155.912 21.2954 155.946 21.0802C155.98 20.865 156.02 20.6499 156.065 20.4347C156.122 20.2082 156.184 19.9931 156.252 19.7892L158.036 14.5064H160.685L157.152 23.7811H154.553Z" fill="white" fill-opacity="0.85"/>
<path d="M165.838 14.3366C166.699 14.3366 167.435 14.5008 168.046 14.8292C168.669 15.1576 169.15 15.6332 169.49 16.2561C169.83 16.8789 170 17.6433 170 18.5492V19.7723H164.02C164.043 20.4857 164.253 21.0462 164.649 21.4539C165.057 21.8616 165.617 22.0654 166.331 22.0654C166.931 22.0654 167.474 22.0088 167.961 21.8956C168.448 21.771 168.952 21.5841 169.473 21.335V23.2885C169.02 23.5149 168.539 23.6791 168.029 23.7811C167.531 23.8943 166.925 23.9509 166.212 23.9509C165.283 23.9509 164.462 23.7811 163.749 23.4413C163.035 23.0903 162.475 22.5637 162.067 21.8616C161.659 21.1595 161.456 20.2762 161.456 19.2117C161.456 18.1246 161.637 17.2243 161.999 16.5108C162.373 15.7861 162.888 15.2425 163.545 14.8801C164.202 14.5178 164.966 14.3366 165.838 14.3366ZM165.855 16.1371C165.368 16.1371 164.96 16.2957 164.632 16.6128C164.315 16.9298 164.128 17.4225 164.071 18.0906H167.622C167.622 17.7169 167.554 17.3828 167.418 17.0884C167.293 16.794 167.101 16.5618 166.84 16.3919C166.58 16.2221 166.251 16.1371 165.855 16.1371Z" fill="white" fill-opacity="0.85"/>
<defs>
<linearGradient id="paint0_linear_36_855" x1="11.8905" y1="26.3291" x2="11.8905" y2="33.973" gradientUnits="userSpaceOnUse">
<stop stop-color="#1B1B1B" stop-opacity="0.5"/>
<stop offset="1" stop-color="#53EB45"/>
</linearGradient>
<linearGradient id="paint1_linear_36_855" x1="11.7131" y1="30.5757" x2="11.9905" y2="-4.99601" gradientUnits="userSpaceOnUse">
<stop stop-color="#53EB45"/>
<stop offset="1" stop-color="#133706"/>
</linearGradient>
<linearGradient id="paint2_linear_36_855" x1="11.7131" y1="30.5757" x2="11.9905" y2="-4.99601" gradientUnits="userSpaceOnUse">
<stop stop-color="#53EB45"/>
<stop offset="1" stop-color="#133706"/>
</linearGradient>
</defs>
</svg>
