<svg width="170" height="34" viewBox="0 0 170 34" fill="none" xmlns="http://www.w3.org/2000/svg">
<path fill-rule="evenodd" clip-rule="evenodd" d="M22.3027 30.0888C22.3028 30.0888 22.3023 30.0908 22.3007 30.0947C22.3017 30.0907 22.3025 30.0888 22.3027 30.0888ZM22.2672 30.1509C22.2245 30.0909 22.1337 29.9883 21.9473 29.8466C21.5316 29.5307 20.8362 29.1825 19.8436 28.8634C17.8752 28.2307 15.0631 27.8153 11.8905 27.8153C8.71792 27.8153 5.90588 28.2307 3.93748 28.8634C2.94489 29.1825 2.24946 29.5307 1.83372 29.8466C1.64733 29.9883 1.55658 30.0909 1.51387 30.1509C1.55658 30.2109 1.64733 30.3136 1.83372 30.4552C2.24946 30.7712 2.94489 31.1194 3.93748 31.4385C5.90588 32.0712 8.71792 32.4866 11.8905 32.4866C15.0631 32.4866 17.8752 32.0712 19.8436 31.4385C20.8362 31.1194 21.5316 30.7712 21.9473 30.4552C22.1337 30.3136 22.2245 30.2109 22.2672 30.1509ZM1.47839 30.0888C1.47853 30.0888 1.47935 30.0907 1.48041 30.0947C1.47877 30.0908 1.47824 30.0888 1.47839 30.0888ZM1.47839 30.2131C1.47824 30.2131 1.47877 30.2111 1.48041 30.2072C1.47935 30.2111 1.47853 30.2131 1.47839 30.2131ZM22.3007 30.2072C22.3023 30.2111 22.3028 30.2131 22.3027 30.2131C22.3025 30.2131 22.3017 30.2111 22.3007 30.2072ZM11.8905 33.9729C18.4575 33.9729 23.7811 32.2617 23.7811 30.1509C23.7811 28.0401 18.4575 26.329 11.8905 26.329C5.32357 26.329 0 28.0401 0 30.1509C0 32.2617 5.32357 33.9729 11.8905 33.9729Z" fill="url(#paint0_linear_36_719)"/>
<path d="M11.691 21.7312L21.0557 16.6837L11.691 30.5756L2.37054 16.6837L11.691 21.7312Z" fill="url(#paint1_linear_36_719)"/>
<path d="M2.37054 13.8472L11.691 8.822L21.0557 13.8696L11.691 -4.6865e-05L2.37054 13.8472Z" fill="url(#paint2_linear_36_719)"/>
<path d="M42.4829 23.781H35.5015V11.6526H42.4829V13.7589H38.0664V16.4258H42.1772V18.5321H38.0664V21.6576H42.4829V23.781Z" fill="#1B1B1B"/>
<path d="M49.6779 23.781H47.1129V13.7929H43.8175V11.6526H52.9733V13.7929H49.6779V23.781Z" fill="#1B1B1B"/>
<path d="M59.6586 13.623C59.1717 13.623 58.7357 13.7193 58.3507 13.9118C57.977 14.1043 57.6599 14.3818 57.3994 14.7441C57.139 15.0952 56.9408 15.5255 56.8049 16.0351C56.6803 16.5447 56.618 17.1166 56.618 17.7508C56.618 18.6114 56.72 19.3475 56.9238 19.959C57.139 20.5592 57.473 21.0178 57.926 21.3349C58.379 21.652 58.9565 21.8105 59.6586 21.8105C60.1569 21.8105 60.6495 21.7539 61.1364 21.6407C61.6347 21.5274 62.1726 21.3689 62.7502 21.165V23.3223C62.2179 23.5375 61.6913 23.696 61.1704 23.7979C60.6495 23.8999 60.0663 23.9508 59.4208 23.9508C58.1751 23.9508 57.1446 23.696 56.3293 23.1864C55.5252 22.6655 54.9307 21.9408 54.5457 21.0122C54.1607 20.0722 53.9682 18.9794 53.9682 17.7338C53.9682 16.8165 54.0927 15.9785 54.3419 15.2198C54.591 14.4497 54.9534 13.7872 55.429 13.2324C55.9159 12.6775 56.5105 12.2471 57.2126 11.9414C57.926 11.6356 58.7414 11.4827 59.6586 11.4827C60.2588 11.4827 60.859 11.562 61.4592 11.7206C62.0707 11.8678 62.6539 12.0716 63.2088 12.3321L62.3765 14.4214C61.9235 14.2062 61.4649 14.0194 61.0006 13.8609C60.5476 13.7023 60.1003 13.623 59.6586 13.623Z" fill="#1B1B1B"/>
<path d="M74.8867 13.623C74.3998 13.623 73.9638 13.7193 73.5788 13.9118C73.2051 14.1043 72.888 14.3818 72.6275 14.7441C72.3671 15.0952 72.1689 15.5255 72.033 16.0351C71.9084 16.5447 71.8462 17.1166 71.8462 17.7508C71.8462 18.6114 71.9481 19.3475 72.1519 19.959C72.3671 20.5592 72.7011 21.0178 73.1541 21.3349C73.6071 21.652 74.1846 21.8105 74.8867 21.8105C75.385 21.8105 75.8776 21.7539 76.3646 21.6407C76.8628 21.5274 77.4007 21.3689 77.9783 21.165V23.3223C77.446 23.5375 76.9194 23.696 76.3985 23.7979C75.8776 23.8999 75.2944 23.9508 74.6489 23.9508C73.4033 23.9508 72.3727 23.696 71.5574 23.1864C70.7534 22.6655 70.1588 21.9408 69.7738 21.0122C69.3888 20.0722 69.1963 18.9794 69.1963 17.7338C69.1963 16.8165 69.3208 15.9785 69.57 15.2198C69.8191 14.4497 70.1815 13.7872 70.6571 13.2324C71.1441 12.6775 71.7386 12.2471 72.4407 11.9414C73.1541 11.6356 73.9695 11.4827 74.8867 11.4827C75.4869 11.4827 76.0871 11.562 76.6873 11.7206C77.2988 11.8678 77.882 12.0716 78.4369 12.3321L77.6046 14.4214C77.1516 14.2062 76.693 14.0194 76.2287 13.8609C75.7757 13.7023 75.3284 13.623 74.8867 13.623Z" fill="#1B1B1B"/>
<path d="M88.7769 19.1267C88.7769 19.8967 88.6693 20.5818 88.4542 21.182C88.2503 21.7822 87.9502 22.2918 87.5539 22.7108C87.1688 23.1185 86.6989 23.4299 86.144 23.6451C85.5891 23.8489 84.9606 23.9508 84.2585 23.9508C83.613 23.9508 83.0128 23.8489 82.4579 23.6451C81.9144 23.4299 81.4444 23.1185 81.0481 22.7108C80.6517 22.2918 80.3403 21.7822 80.1138 21.182C79.8986 20.5818 79.791 19.8967 79.791 19.1267C79.791 18.0961 79.9722 17.2298 80.3346 16.5277C80.697 15.8143 81.2179 15.2707 81.8974 14.897C82.5768 14.5233 83.3809 14.3365 84.3095 14.3365C85.1814 14.3365 85.9515 14.5233 86.6196 14.897C87.2878 15.2707 87.8143 15.8143 88.1994 16.5277C88.5844 17.2298 88.7769 18.0961 88.7769 19.1267ZM82.373 19.1267C82.373 19.7382 82.4353 20.2534 82.5598 20.6724C82.6957 21.0801 82.9052 21.3915 83.1883 21.6067C83.4715 21.8105 83.8395 21.9124 84.2925 21.9124C84.7454 21.9124 85.1078 21.8105 85.3796 21.6067C85.6627 21.3915 85.8666 21.0801 85.9911 20.6724C86.127 20.2534 86.195 19.7382 86.195 19.1267C86.195 18.5151 86.127 18.0056 85.9911 17.5979C85.8666 17.1902 85.6627 16.8844 85.3796 16.6806C85.0965 16.4768 84.7285 16.3749 84.2755 16.3749C83.6073 16.3749 83.1204 16.607 82.8146 17.0713C82.5202 17.5243 82.373 18.2094 82.373 19.1267Z" fill="#1B1B1B"/>
<path d="M99.2939 19.1267C99.2939 19.8967 99.1863 20.5818 98.9712 21.182C98.7673 21.7822 98.4672 22.2918 98.0709 22.7108C97.6859 23.1185 97.2159 23.4299 96.661 23.6451C96.1061 23.8489 95.4776 23.9508 94.7755 23.9508C94.13 23.9508 93.5298 23.8489 92.9749 23.6451C92.4314 23.4299 91.9614 23.1185 91.5651 22.7108C91.1687 22.2918 90.8573 21.7822 90.6308 21.182C90.4157 20.5818 90.3081 19.8967 90.3081 19.1267C90.3081 18.0961 90.4893 17.2298 90.8516 16.5277C91.214 15.8143 91.7349 15.2707 92.4144 14.897C93.0939 14.5233 93.8979 14.3365 94.8265 14.3365C95.6984 14.3365 96.4685 14.5233 97.1366 14.897C97.8048 15.2707 98.3313 15.8143 98.7164 16.5277C99.1014 17.2298 99.2939 18.0961 99.2939 19.1267ZM92.89 19.1267C92.89 19.7382 92.9523 20.2534 93.0769 20.6724C93.2128 21.0801 93.4223 21.3915 93.7054 21.6067C93.9885 21.8105 94.3565 21.9124 94.8095 21.9124C95.2625 21.9124 95.6248 21.8105 95.8966 21.6067C96.1797 21.3915 96.3836 21.0801 96.5081 20.6724C96.644 20.2534 96.712 19.7382 96.712 19.1267C96.712 18.5151 96.644 18.0056 96.5081 17.5979C96.3836 17.1902 96.1797 16.8844 95.8966 16.6806C95.6135 16.4768 95.2455 16.3749 94.7925 16.3749C94.1244 16.3749 93.6374 16.607 93.3317 17.0713C93.0372 17.5243 92.89 18.2094 92.89 19.1267Z" fill="#1B1B1B"/>
<path d="M106.55 14.3365C107.591 14.3365 108.435 14.7441 109.081 15.5595C109.726 16.3635 110.049 17.5526 110.049 19.1267C110.049 20.1798 109.896 21.0688 109.59 21.7935C109.284 22.507 108.865 23.0449 108.333 23.4073C107.801 23.7696 107.184 23.9508 106.482 23.9508C106.04 23.9508 105.655 23.8942 105.327 23.781C105.009 23.6677 104.738 23.5205 104.511 23.3393C104.285 23.1581 104.086 22.9656 103.917 22.7618H103.781C103.826 22.9769 103.86 23.2034 103.883 23.4412C103.905 23.6677 103.917 23.8942 103.917 24.1207V27.8577H101.386V14.5063H103.441L103.798 15.7124H103.917C104.086 15.4632 104.29 15.2368 104.528 15.0329C104.766 14.8178 105.049 14.6479 105.377 14.5233C105.717 14.3988 106.108 14.3365 106.55 14.3365ZM105.734 16.3579C105.293 16.3579 104.941 16.4485 104.681 16.6296C104.421 16.8108 104.228 17.0883 104.103 17.462C103.99 17.8244 103.928 18.283 103.917 18.8379V19.1097C103.917 19.7099 103.973 20.2195 104.086 20.6385C104.2 21.0461 104.392 21.3576 104.664 21.5727C104.936 21.7879 105.304 21.8955 105.768 21.8955C106.153 21.8955 106.47 21.7879 106.719 21.5727C106.969 21.3576 107.155 21.0405 107.28 20.6215C107.405 20.2025 107.467 19.6929 107.467 19.0927C107.467 18.1867 107.325 17.5073 107.042 17.0543C106.77 16.59 106.334 16.3579 105.734 16.3579Z" fill="#1B1B1B"/>
<path d="M115.957 14.3365C116.818 14.3365 117.554 14.5007 118.165 14.8291C118.788 15.1575 119.269 15.6331 119.609 16.2559C119.949 16.8788 120.119 17.6432 120.119 18.5491V19.7721H114.139C114.162 20.4856 114.371 21.0461 114.768 21.4538C115.175 21.8615 115.736 22.0653 116.449 22.0653C117.05 22.0653 117.593 22.0087 118.08 21.8955C118.567 21.7709 119.071 21.584 119.592 21.3349V23.2883C119.139 23.5148 118.658 23.679 118.148 23.781C117.65 23.8942 117.044 23.9508 116.331 23.9508C115.402 23.9508 114.581 23.781 113.868 23.4412C113.154 23.0902 112.594 22.5636 112.186 21.8615C111.778 21.1594 111.574 20.2761 111.574 19.2116C111.574 18.1245 111.756 17.2242 112.118 16.5107C112.492 15.786 113.007 15.2424 113.664 14.88C114.32 14.5177 115.085 14.3365 115.957 14.3365ZM115.974 16.137C115.487 16.137 115.079 16.2956 114.751 16.6127C114.434 16.9297 114.247 17.4223 114.19 18.0905H117.74C117.74 17.7168 117.672 17.3827 117.537 17.0883C117.412 16.7939 117.22 16.5617 116.959 16.3918C116.699 16.222 116.37 16.137 115.974 16.137Z" fill="#1B1B1B"/>
<path d="M127.352 14.3365C127.476 14.3365 127.624 14.3421 127.793 14.3535C127.963 14.3648 128.099 14.3818 128.201 14.4044L128.014 16.7825C127.935 16.7599 127.816 16.7429 127.657 16.7316C127.51 16.7089 127.38 16.6976 127.267 16.6976C126.938 16.6976 126.621 16.7429 126.316 16.8335C126.01 16.9128 125.732 17.043 125.483 17.2242C125.245 17.4054 125.053 17.6488 124.906 17.9546C124.77 18.249 124.702 18.6171 124.702 19.0587V23.781H122.171V14.5063H124.09L124.464 16.0691H124.583C124.764 15.752 124.991 15.4632 125.262 15.2028C125.534 14.9423 125.846 14.7328 126.197 14.5743C126.559 14.4157 126.944 14.3365 127.352 14.3365Z" fill="#1B1B1B"/>
<path d="M133.358 14.3195C134.603 14.3195 135.555 14.5913 136.211 15.1348C136.88 15.6671 137.214 16.4881 137.214 17.5979V23.781H135.447L134.954 22.524H134.886C134.626 22.8524 134.354 23.1241 134.071 23.3393C133.799 23.5545 133.482 23.7073 133.12 23.7979C132.769 23.8999 132.333 23.9508 131.812 23.9508C131.268 23.9508 130.776 23.8489 130.334 23.6451C129.904 23.4299 129.564 23.1072 129.315 22.6768C129.066 22.2352 128.941 21.6803 128.941 21.0122C128.941 20.0269 129.287 19.3022 129.977 18.8379C130.668 18.3623 131.704 18.1018 133.086 18.0565L134.7 18.0056V17.5979C134.7 17.1109 134.569 16.7542 134.309 16.5277C134.06 16.3012 133.709 16.188 133.256 16.188C132.803 16.188 132.361 16.2559 131.931 16.3918C131.5 16.5164 131.07 16.6749 130.64 16.8675L129.807 15.1518C130.306 14.8914 130.855 14.6875 131.455 14.5403C132.067 14.3931 132.701 14.3195 133.358 14.3195ZM133.714 19.5173C132.899 19.54 132.333 19.6872 132.016 19.959C131.699 20.2308 131.54 20.5875 131.54 21.0291C131.54 21.4142 131.653 21.6916 131.88 21.8615C132.106 22.02 132.401 22.0993 132.763 22.0993C133.307 22.0993 133.765 21.9408 134.139 21.6237C134.513 21.2953 134.7 20.8366 134.7 20.2478V19.4834L133.714 19.5173Z" fill="#1B1B1B"/>
<path d="M143.711 21.9294C143.994 21.9294 144.266 21.9011 144.527 21.8445C144.787 21.7879 145.047 21.7199 145.308 21.6407V23.5262C145.036 23.6394 144.696 23.7357 144.289 23.8149C143.892 23.9055 143.456 23.9508 142.981 23.9508C142.426 23.9508 141.928 23.8602 141.486 23.679C141.056 23.4978 140.71 23.1864 140.45 22.7448C140.201 22.2918 140.076 21.669 140.076 20.8763V16.4088H138.87V15.3387L140.263 14.4894L140.993 12.5359H142.607V14.5063H145.206V16.4088H142.607V20.8763C142.607 21.2273 142.709 21.4934 142.913 21.6746C143.117 21.8445 143.383 21.9294 143.711 21.9294Z" fill="#1B1B1B"/>
<path d="M149.7 14.5063V23.781H147.17V14.5063H149.7ZM148.443 10.8712C148.817 10.8712 149.14 10.9618 149.412 11.143C149.684 11.3129 149.819 11.6356 149.819 12.1112C149.819 12.5755 149.684 12.8983 149.412 13.0795C149.14 13.2607 148.817 13.3513 148.443 13.3513C148.058 13.3513 147.73 13.2607 147.458 13.0795C147.198 12.8983 147.068 12.5755 147.068 12.1112C147.068 11.6356 147.198 11.3129 147.458 11.143C147.73 10.9618 148.058 10.8712 148.443 10.8712Z" fill="#1B1B1B"/>
<path d="M154.553 23.781L151.02 14.5063H153.67L155.454 19.7891C155.522 19.993 155.578 20.2081 155.623 20.4346C155.68 20.6611 155.72 20.8819 155.742 21.0971C155.776 21.3123 155.799 21.5104 155.81 21.6916H155.878C155.89 21.4991 155.912 21.2953 155.946 21.0801C155.98 20.8649 156.02 20.6498 156.065 20.4346C156.122 20.2081 156.184 19.993 156.252 19.7891L158.036 14.5063H160.685L157.152 23.781H154.553Z" fill="#1B1B1B"/>
<path d="M165.838 14.3365C166.699 14.3365 167.435 14.5007 168.046 14.8291C168.669 15.1575 169.15 15.6331 169.49 16.2559C169.83 16.8788 170 17.6432 170 18.5491V19.7721H164.02C164.043 20.4856 164.253 21.0461 164.649 21.4538C165.057 21.8615 165.617 22.0653 166.331 22.0653C166.931 22.0653 167.474 22.0087 167.961 21.8955C168.448 21.7709 168.952 21.584 169.473 21.3349V23.2883C169.02 23.5148 168.539 23.679 168.029 23.781C167.531 23.8942 166.925 23.9508 166.212 23.9508C165.283 23.9508 164.462 23.781 163.749 23.4412C163.035 23.0902 162.475 22.5636 162.067 21.8615C161.659 21.1594 161.456 20.2761 161.456 19.2116C161.456 18.1245 161.637 17.2242 161.999 16.5107C162.373 15.786 162.888 15.2424 163.545 14.88C164.202 14.5177 164.966 14.3365 165.838 14.3365ZM165.855 16.137C165.368 16.137 164.96 16.2956 164.632 16.6127C164.315 16.9297 164.128 17.4223 164.071 18.0905H167.622C167.622 17.7168 167.554 17.3827 167.418 17.0883C167.293 16.7939 167.101 16.5617 166.84 16.3918C166.58 16.222 166.251 16.137 165.855 16.137Z" fill="#1B1B1B"/>
<defs>
<linearGradient id="paint0_linear_36_719" x1="11.8905" y1="26.329" x2="11.8905" y2="33.9729" gradientUnits="userSpaceOnUse">
<stop stop-color="#1B1B1B" stop-opacity="0.5"/>
<stop offset="1" stop-color="#53EB45"/>
</linearGradient>
<linearGradient id="paint1_linear_36_719" x1="11.7131" y1="30.5756" x2="11.9905" y2="-4.99608" gradientUnits="userSpaceOnUse">
<stop stop-color="#53EB45"/>
<stop offset="1" stop-color="#133706"/>
</linearGradient>
<linearGradient id="paint2_linear_36_719" x1="11.7131" y1="30.5756" x2="11.9905" y2="-4.99608" gradientUnits="userSpaceOnUse">
<stop stop-color="#53EB45"/>
<stop offset="1" stop-color="#133706"/>
</linearGradient>
</defs>
</svg>
