<svg width="24" height="24" viewBox="0 0 24 24" fill="none" xmlns="http://www.w3.org/2000/svg">
<mask id="mask0_36_848" style="mask-type:luminance" maskUnits="userSpaceOnUse" x="0" y="0" width="24" height="24">
<path d="M12 23.9012C18.6274 23.9012 24 18.5508 24 11.9506C24 5.35047 18.6274 0 12 0C5.37258 0 0 5.35047 0 11.9506C0 18.5508 5.37258 23.9012 12 23.9012Z" fill="white"/>
</mask>
<g mask="url(#mask0_36_848)">
<path d="M0 0L0.375 1.02701L0 2.10069V3.17438L1.5 5.69522L0 8.21605V9.70988L1.5 11.9506L0 14.1914V15.6852L1.5 18.206L0 20.7269V23.9012L1.03125 23.5278L2.10938 23.9012H3.1875L5.71875 22.4074L8.25 23.9012H9.75L12 22.4074L14.25 23.9012H15.75L18.2812 22.4074L20.8125 23.9012H24L23.625 22.8742L24 21.8005V20.7269L22.5 18.206L24 15.6852V14.1914L22.5 11.9506L24 9.70988V8.21605L22.5 5.69522L24 3.17438V0L22.9688 0.373457L21.8906 0H20.8125L18.2812 1.49383L15.75 0H14.25L12 1.49383L9.75 0H8.25L5.71875 1.49383L3.1875 0H0Z" fill="#EEEEEE"/>
<path d="M15.75 0V5.04167L20.8125 0H15.75ZM24 3.17438L18.9375 8.21605H24V3.17438ZM0 8.21605H5.0625L0 3.17438V8.21605ZM3.1875 0L8.25 5.04167V0H3.1875ZM8.25 23.9012V18.8596L3.1875 23.9012H8.25ZM0 20.7269L5.0625 15.6852H0V20.7269ZM24 15.6852H18.9375L24 20.7269V15.6852ZM20.8125 23.9012L15.75 18.8596V23.9012H20.8125Z" fill="#0052B4"/>
<path d="M0 0V2.10069L6.14062 8.21605H8.25L0 0ZM9.75 0V9.70988H0V14.1914H9.75V23.9012H14.25V14.1914H24V9.70988H14.25V0H9.75ZM21.8906 0L15.75 6.11535V8.21605L24 0H21.8906ZM8.25 15.6852L0 23.9012H2.10938L8.25 17.7859V15.6852ZM15.75 15.6852L24 23.9012V21.8005L17.8594 15.6852H15.75Z" fill="#D80027"/>
</g>
</svg>
