<svg width="50" height="50" viewBox="0 0 50 50" fill="none" xmlns="http://www.w3.org/2000/svg">
<path d="M45.2301 18.1458C47.8343 15.5417 46.6468 12.5 45.2301 11.0208L38.9801 4.77083C36.3551 2.16666 33.3343 3.35416 31.8551 4.77083L28.3135 8.33333H22.9176C18.9593 8.33333 16.6676 10.4167 15.501 12.8125L6.25097 22.0625V30.3958L4.7718 31.8542C2.16764 34.4792 3.35514 37.5 4.7718 38.9792L11.0218 45.2292C12.1468 46.3542 13.3551 46.7708 14.501 46.7708C15.9801 46.7708 17.3343 46.0417 18.1468 45.2292L23.7718 39.5833H31.251C34.7926 39.5833 36.5843 37.375 37.2301 35.2083C39.5843 34.5833 40.876 32.7917 41.3968 31.0417C44.626 30.2083 45.8343 27.1458 45.8343 25V18.75H44.6051L45.2301 18.1458ZM41.6676 25C41.6676 25.9375 41.2718 27.0833 39.5843 27.0833H37.501V29.1667C37.501 30.1042 37.1051 31.25 35.4176 31.25H33.3343V33.3333C33.3343 34.2708 32.9385 35.4167 31.251 35.4167H22.0635L15.2301 42.25C14.5843 42.8542 14.2093 42.5 13.9801 42.2708L7.75097 36.0625C7.1468 35.4167 7.50097 35.0417 7.73014 34.8125L10.4176 32.1042V23.7708L14.5843 19.6042V22.9167C14.5843 25.4375 16.251 29.1667 20.8343 29.1667C25.4176 29.1667 27.0843 25.4375 27.0843 22.9167H41.6676V25ZM42.2718 15.1875L38.7301 18.75H22.9176V22.9167C22.9176 23.8542 22.5218 25 20.8343 25C19.1468 25 18.751 23.8542 18.751 22.9167V16.6667C18.751 15.7083 19.1051 12.5 22.9176 12.5H30.0218L34.7718 7.74999C35.4176 7.14583 35.7926 7.49999 36.0218 7.72916L42.251 13.9375C42.8551 14.5833 42.501 14.9583 42.2718 15.1875Z" fill="#22C55E"/>
</svg>
