<svg width="50" height="50" viewBox="0 0 50 50" fill="none" xmlns="http://www.w3.org/2000/svg">
<path d="M11.9792 37.5001L11.1458 36.7709C9.34028 35.1737 8.07292 33.3507 7.34376 31.3021C6.61459 29.2535 6.25001 27.1875 6.25001 25.1042C6.25001 21.8403 7.07431 18.8799 8.72292 16.223C10.3715 13.566 12.6028 11.5264 15.4167 10.1042C15.9028 9.82644 16.4236 9.80908 16.9792 10.0521C17.5347 10.2952 17.8993 10.6945 18.0729 11.25C18.2465 11.7709 18.2375 12.2917 18.0458 12.8125C17.8542 13.3334 17.516 13.7327 17.0313 14.0105C15.0174 15.1216 13.4111 16.6584 12.2125 18.6209C11.0139 20.5834 10.4153 22.7445 10.4167 25.1042C10.4167 26.6667 10.7118 28.1862 11.3021 29.6625C11.8924 31.1389 12.8125 32.5014 14.0625 33.7501L14.5833 34.2709V31.25C14.5833 30.6598 14.7833 30.1646 15.1833 29.7646C15.5833 29.3646 16.0778 29.1653 16.6667 29.1667C17.257 29.1667 17.7521 29.3667 18.1521 29.7667C18.5521 30.1667 18.7514 30.6612 18.75 31.25V39.5834C18.75 40.1737 18.55 40.6688 18.15 41.0688C17.75 41.4688 17.2556 41.6681 16.6667 41.6667H8.33334C7.74306 41.6667 7.24792 41.4667 6.84792 41.0667C6.44792 40.6667 6.24862 40.1723 6.25001 39.5834C6.25001 38.9931 6.45001 38.498 6.85001 38.098C7.25001 37.698 7.74445 37.4987 8.33334 37.5001H11.9792ZM35.4167 15.7292V18.75C35.4167 19.3403 35.2167 19.8355 34.8167 20.2355C34.4167 20.6355 33.9222 20.8348 33.3333 20.8334C32.7431 20.8334 32.2479 20.6334 31.8479 20.2334C31.4479 19.8334 31.2486 19.3389 31.25 18.75V10.4167C31.25 9.82644 31.45 9.3313 31.85 8.9313C32.25 8.5313 32.7445 8.33199 33.3333 8.33338H41.6667C42.257 8.33338 42.7521 8.53338 43.1521 8.93338C43.5521 9.33338 43.7514 9.82783 43.75 10.4167C43.75 11.007 43.55 11.5021 43.15 11.9021C42.75 12.3021 42.2556 12.5014 41.6667 12.5H38.0208L38.8542 13.2292C40.2778 14.6875 41.3715 16.2327 42.1354 17.8646C42.8993 19.4966 43.3854 21.1806 43.5938 22.9167H39.375C39.2014 21.7014 38.8285 20.5382 38.2563 19.4271C37.684 18.316 36.9111 17.257 35.9375 16.25L35.4167 15.7292ZM36.25 47.9167C35.9722 47.9167 35.7549 47.8382 35.5979 47.6813C35.441 47.5244 35.3285 47.3251 35.2604 47.0834L34.7917 44.7917C34.375 44.6181 33.984 44.4355 33.6188 44.2438C33.2535 44.0521 32.8806 43.8181 32.5 43.5417L30.2604 44.2188C30.0174 44.2882 29.7917 44.2792 29.5833 44.1917C29.375 44.1042 29.2014 43.957 29.0625 43.75L27.8125 41.6667C27.6736 41.4584 27.6389 41.2327 27.7083 40.9896C27.7778 40.7466 27.8993 40.5382 28.0729 40.3646L29.7917 38.8542C29.7222 38.3681 29.6875 37.9167 29.6875 37.5001C29.6875 37.0834 29.7222 36.632 29.7917 36.1459L28.0729 34.6355C27.8993 34.4619 27.7778 34.2535 27.7083 34.0105C27.6389 33.7674 27.6736 33.5417 27.8125 33.3334L29.0625 31.25C29.2014 31.0417 29.375 30.8945 29.5833 30.8084C29.7917 30.7223 30.0174 30.7132 30.2604 30.7813L32.5 31.4584C32.882 31.1806 33.2556 30.9466 33.6208 30.7563C33.9861 30.566 34.3764 30.3834 34.7917 30.2084L35.2604 27.9167C35.3299 27.6737 35.4431 27.4737 35.6 27.3167C35.757 27.1598 35.9736 27.082 36.25 27.0834H38.75C39.0278 27.0834 39.2451 27.1619 39.4021 27.3188C39.559 27.4757 39.6715 27.675 39.7396 27.9167L40.2083 30.2084C40.625 30.382 41.016 30.573 41.3813 30.7813C41.7465 30.9896 42.1194 31.25 42.5 31.5625L44.6875 30.7813C44.9306 30.7119 45.1653 30.7209 45.3917 30.8084C45.6181 30.8959 45.8 31.0431 45.9375 31.25L47.1875 33.4375C47.3264 33.6459 47.3701 33.8716 47.3188 34.1146C47.2674 34.3577 47.1542 34.566 46.9792 34.7396L45.2083 36.25C45.2778 36.6667 45.3125 37.1007 45.3125 37.5521C45.3125 38.0035 45.2778 38.4375 45.2083 38.8542L46.9271 40.3646C47.1007 40.5382 47.2222 40.7466 47.2917 40.9896C47.3611 41.2327 47.3264 41.4584 47.1875 41.6667L45.9375 43.75C45.7986 43.9584 45.625 44.1063 45.4167 44.1938C45.2083 44.2813 44.9826 44.2896 44.7396 44.2188L42.5 43.5417C42.1181 43.8195 41.7451 44.0542 41.3813 44.2459C41.0174 44.4376 40.6264 44.6195 40.2083 44.7917L39.7396 47.0834C39.6701 47.3264 39.557 47.5264 39.4 47.6834C39.2431 47.8403 39.0264 47.9181 38.75 47.9167H36.25ZM37.5 41.6667C38.6458 41.6667 39.6271 41.2584 40.4438 40.4417C41.2604 39.6251 41.6681 38.6445 41.6667 37.5001C41.6667 36.3542 41.2583 35.373 40.4417 34.5563C39.625 33.7396 38.6445 33.332 37.5 33.3334C36.3542 33.3334 35.3729 33.7417 34.5563 34.5584C33.7396 35.375 33.332 36.3556 33.3333 37.5001C33.3333 38.6459 33.7417 39.6271 34.5583 40.4438C35.375 41.2605 36.3556 41.6681 37.5 41.6667Z" fill="#22C55E"/>
</svg>
