<svg width="30" height="30" viewBox="0 0 30 30" fill="none" xmlns="http://www.w3.org/2000/svg">
<path d="M0 15C0 23.2843 6.71573 30 15 30C23.2843 30 30 23.2843 30 15C30 6.71573 23.2843 0 15 0C6.71573 0 0 6.71573 0 15Z" fill="#5A64D8"/>
<path d="M20.4531 9.99753C19.4556 9.53253 18.3756 9.19503 17.2506 9.00003C17.2407 8.99972 17.2309 9.00157 17.2218 9.00546C17.2128 9.00935 17.2047 9.01517 17.1981 9.02253C17.0631 9.27003 16.9056 9.59253 16.8006 9.84003C15.6073 9.66003 14.3938 9.66003 13.2006 9.84003C13.0956 9.58503 12.9381 9.27003 12.7956 9.02253C12.7881 9.00753 12.7656 9.00003 12.7431 9.00003C11.6181 9.19503 10.5456 9.53253 9.54058 9.99753C9.53308 9.99753 9.52558 10.005 9.51808 10.0125C7.47808 13.065 6.91558 16.035 7.19308 18.975C7.19308 18.99 7.20058 19.005 7.21558 19.0125C8.56558 20.0025 9.86308 20.6025 11.1456 21C11.1681 21.0075 11.1906 21 11.1981 20.985C11.4981 20.5725 11.7681 20.1375 12.0006 19.68C12.0156 19.65 12.0006 19.62 11.9706 19.6125C11.5431 19.4475 11.1381 19.2525 10.7406 19.0275C10.7106 19.0125 10.7106 18.9675 10.7331 18.945C10.8156 18.885 10.8981 18.8175 10.9806 18.7575C10.9956 18.7425 11.0181 18.7425 11.0331 18.75C13.6131 19.9275 16.3956 19.9275 18.9456 18.75C18.9606 18.7425 18.9831 18.7425 18.9981 18.7575C19.0806 18.825 19.1631 18.885 19.2456 18.9525C19.2756 18.975 19.2756 19.02 19.2381 19.035C18.8481 19.2675 18.4356 19.455 18.0081 19.62C17.9781 19.6275 17.9706 19.665 17.9781 19.6875C18.2181 20.145 18.4881 20.58 18.7806 20.9925C18.8031 21 18.8256 21.0075 18.8481 21C20.1381 20.6025 21.4356 20.0025 22.7856 19.0125C22.8006 19.005 22.8081 18.99 22.8081 18.975C23.1381 15.5775 22.2606 12.63 20.4831 10.0125C20.4756 10.005 20.4681 9.99753 20.4531 9.99753ZM12.3906 17.1825C11.6181 17.1825 10.9731 16.47 10.9731 15.5925C10.9731 14.715 11.6031 14.0025 12.3906 14.0025C13.1856 14.0025 13.8156 14.7225 13.8081 15.5925C13.8081 16.47 13.1781 17.1825 12.3906 17.1825ZM17.6181 17.1825C16.8456 17.1825 16.2006 16.47 16.2006 15.5925C16.2006 14.715 16.8306 14.0025 17.6181 14.0025C18.4131 14.0025 19.0431 14.7225 19.0356 15.5925C19.0356 16.47 18.4131 17.1825 17.6181 17.1825Z" fill="#F7F8F9"/>
</svg>
