<svg width="16" height="16" viewBox="0 0 16 16" fill="none" xmlns="http://www.w3.org/2000/svg">
<path d="M9.14265 8.0001C9.14803 6.61453 9.51318 5.25412 10.2023 4.05208C10.8915 2.85005 11.8811 1.84762 13.0741 1.14296C12.1894 0.776694 11.2429 0.582744 10.2855 0.571533C8.31533 0.571533 6.42584 1.35418 5.03271 2.74731C3.63958 4.14044 2.85693 6.02992 2.85693 8.0001C2.85693 9.97028 3.63958 11.8598 5.03271 13.2529C6.42584 14.646 8.31533 15.4287 10.2855 15.4287C11.2545 15.4219 12.213 15.2278 13.1084 14.8572C11.909 14.1569 10.9126 13.1563 10.2172 11.954C9.52189 10.7516 9.15154 9.38899 9.14265 8.0001Z" stroke="white" stroke-linecap="round" stroke-linejoin="round"/>
</svg>
