<svg width="136" height="55" viewBox="0 0 136 55" fill="none" xmlns="http://www.w3.org/2000/svg">
<g clip-path="url(#clip0_336_895)">
<path d="M31.0034 54.4832V40.6853L31.292 40.3974H34.1757L34.4643 40.6853V54.4832L34.1757 54.7711H31.292L31.0034 54.4832ZM31.0034 14.0849V0.287734L31.292 0H34.1757L34.4643 0.287734V14.0849L34.1757 14.3726H31.292L31.0034 14.0849ZM18.468 44.5363H18.0603L16.0215 42.5032V42.0966L20.7823 37.3521L22.9412 37.3532L23.2309 37.6397V39.7918L18.468 44.5363ZM18.466 10.2347H18.0582L16.0195 12.2679V12.6744L20.7803 17.4189L22.9392 17.4179L23.2288 17.1312V14.9793L18.466 10.2347ZM0.288658 25.6606H19.8982L20.1868 25.9484V28.8226L19.8982 29.1105H0.288658L0 28.8226V25.9484L0.288658 25.6606ZM116.425 25.6606H134.882L135.171 25.9484V28.8226L134.882 29.1105H115.272L114.984 28.8226L116.136 25.9484L116.425 25.6606Z" fill="#05BDBA"/>
<path d="M55.9834 28.6124L55.6948 28.9003H46.7494L46.4608 29.188C46.4608 29.7635 47.0382 31.4888 49.3464 31.4888C50.2123 31.4888 51.0772 31.2011 51.366 30.6256L51.6545 30.338H55.1175L55.406 30.6256L55.3873 30.7301C55.0586 32.4537 53.5886 34.9406 49.3464 34.9406C44.4412 34.9406 42.132 31.4888 42.132 27.4624C42.132 23.4363 44.4401 19.9845 49.0575 19.9845C53.6752 19.9845 55.9834 23.4363 55.9834 27.4624V28.6124ZM51.366 26.0239L51.6545 25.7362L51.6528 25.69C51.6261 25.2796 51.2671 23.4353 49.0575 23.4353C46.7494 23.4353 46.4608 25.4484 46.4608 25.7362L46.7494 26.0239H51.366ZM64.0629 30.338C64.0629 30.9132 64.3515 31.2011 64.9289 31.2011H67.5256L67.8144 31.4888V34.3651L67.5256 34.653H64.9289C62.3319 34.653 60.0237 33.5019 60.0237 30.338V24.0098L59.7349 23.722H57.7155L57.4267 23.4343V20.558L57.7155 20.2702H59.7349L60.0237 19.9825V17.3939L60.3123 17.1062H63.7752L64.0637 17.3939V19.9825L64.3526 20.2702H67.5267L67.8155 20.558V23.4343L67.5267 23.722H64.3526L64.0637 24.0098V30.338H64.0629ZM74.7392 34.653H71.2763L70.9875 34.3651V14.8063L71.2763 14.5186H74.7392L75.0278 14.8063V34.3651L74.7392 34.653ZM82.5299 17.9704H79.067L78.7782 17.6826V14.8063L79.067 14.5186H82.5299L82.8185 14.8063V17.6826L82.5299 17.9704ZM82.5299 34.653H79.067L78.7782 34.3651V20.5589L79.067 20.2712H82.5299L82.8185 20.5589V34.3651L82.5299 34.653ZM96.0918 14.8063V17.6826L95.8029 17.9704H93.2062C92.6288 17.9704 92.34 18.2581 92.34 18.8336V19.9845L92.6289 20.2722H95.5144L95.8029 20.56V23.4363L95.5144 23.724H92.6289L92.34 24.0118V34.3661L92.0515 34.6538H88.5886L88.3 34.3661V24.0118L88.0112 23.724H85.9918L85.703 23.4363V20.56L85.9918 20.2722H88.0112L88.3 19.9845V18.8336C88.3 15.7035 90.5588 14.5435 93.1215 14.519L95.8019 14.5186L96.0907 14.8063H96.0918ZM106.769 34.9396L106.659 35.2096C105.538 37.9242 104.332 39.5424 100.42 39.5424H98.9763L98.6877 39.2546V36.3782L98.9763 36.0906H100.42L100.587 36.0892C101.885 36.0667 102.162 35.7682 102.439 34.9396V34.6519L97.8226 23.4343V20.558L98.1114 20.2702H100.708L100.997 20.558L104.46 30.338H104.748L108.211 20.558L108.5 20.2702H111.097L111.385 20.558V23.4343L106.769 34.9396ZM35.7602 34.653L35.4717 34.3651L35.4735 26.0309C35.4735 24.5933 34.9065 23.4786 33.1654 23.4423C32.2701 23.4192 31.2458 23.4403 30.1515 23.4866L29.9881 23.6536L29.9902 34.3651L29.7014 34.653H26.2396L25.9509 34.3651V20.405L26.2396 20.1173L34.0302 20.0469C37.9333 20.0469 39.5128 22.72 39.5128 25.7372V34.3651L39.2242 34.653H35.7602Z" fill="#014847"/>
</g>
<defs>
<clipPath id="clip0_336_895">
<rect width="135.169" height="55" fill="white"/>
</clipPath>
</defs>
</svg>
