<svg width="136" height="55" viewBox="0 0 136 55" fill="none" xmlns="http://www.w3.org/2000/svg">
<g clip-path="url(#clip0_336_910)">
<path d="M31.0034 54.4832V40.6853L31.292 40.3974H34.1757L34.4643 40.6853V54.4832L34.1757 54.7711H31.292L31.0034 54.4832ZM31.0034 14.0849V0.287734L31.292 0H34.1757L34.4643 0.287734V14.0849L34.1757 14.3726H31.292L31.0034 14.0849ZM18.468 44.5363H18.0603L16.0215 42.5032V42.0966L20.7823 37.3521L22.9412 37.3532L23.2309 37.6397V39.7918L18.468 44.5363ZM18.466 10.2347H18.0582L16.0195 12.2679V12.6744L20.7803 17.4189L22.9392 17.4179L23.2288 17.1312V14.9793L18.466 10.2347ZM0.288658 25.6606H19.8982L20.1868 25.9484V28.8226L19.8982 29.1105H0.288658L0 28.8226V25.9484L0.288658 25.6606ZM116.425 25.6606H134.882L135.171 25.9484V28.8226L134.882 29.1105H115.272L114.984 28.8226L116.136 25.9484L116.425 25.6606Z" fill="#05BDBA"/>
<path d="M55.9836 28.6124L55.6951 28.9003H46.7496L46.4611 29.188C46.4611 29.7635 47.0384 31.4888 49.3466 31.4888C50.2125 31.4888 51.0774 31.2011 51.3662 30.6256L51.6548 30.338H55.1177L55.4063 30.6256L55.3876 30.7301C55.0589 32.4537 53.5889 34.9406 49.3466 34.9406C44.4414 34.9406 42.1322 31.4888 42.1322 27.4625C42.1322 23.4363 44.4404 19.9845 49.0578 19.9845C53.6755 19.9845 55.9836 23.4363 55.9836 27.4625V28.6124ZM51.3662 26.0239L51.6548 25.7362L51.6531 25.69C51.6263 25.2796 51.2673 23.4353 49.0578 23.4353C46.7496 23.4353 46.4611 25.4484 46.4611 25.7362L46.7496 26.0239H51.3662ZM64.0632 30.338C64.0632 30.9132 64.3517 31.2011 64.9291 31.2011H67.5259L67.8147 31.4888V34.3651L67.5259 34.653H64.9291C62.3321 34.653 60.0239 33.5019 60.0239 30.338V24.0098L59.7351 23.722H57.7158L57.4269 23.4343V20.558L57.7158 20.2702H59.7351L60.0239 19.9825V17.3939L60.3125 17.1062H63.7754L64.064 17.3939V19.9825L64.3528 20.2702H67.5269L67.8157 20.558V23.4343L67.5269 23.722H64.3528L64.064 24.0098L64.0632 30.338ZM74.7395 34.653H71.2765L70.9877 34.3651V14.8063L71.2765 14.5186H74.7395L75.028 14.8063V34.3651L74.7395 34.653ZM82.5302 17.9704H79.0673L78.7784 17.6826V14.8063L79.0673 14.5186H82.5302L82.8187 14.8063V17.6826L82.5302 17.9704ZM82.5302 34.653H79.0673L78.7784 34.3651V20.559L79.0673 20.2712H82.5302L82.8187 20.559V34.3651L82.5302 34.653ZM96.092 14.8063V17.6826L95.8032 17.9704H93.2065C92.6291 17.9704 92.3403 18.2581 92.3403 18.8336V19.9845L92.6291 20.2722H95.5146L95.8032 20.56V23.4363L95.5146 23.724H92.6291L92.3403 24.0118V34.3661L92.0517 34.6538H88.5888L88.3002 34.3661V24.0118L88.0114 23.724H85.9921L85.7032 23.4363V20.56L85.9921 20.2722H88.0114L88.3002 19.9845V18.8336C88.3002 15.7035 90.559 14.5435 93.1217 14.519L95.8021 14.5186L96.091 14.8063H96.092ZM106.769 34.9396L106.659 35.2096C105.538 37.9242 104.333 39.5425 100.42 39.5425H98.9765L98.688 39.2546V36.3782L98.9765 36.0906H100.42L100.587 36.0892C101.885 36.0667 102.162 35.7682 102.439 34.9396V34.6519L97.8228 23.4343V20.558L98.1116 20.2702H100.708L100.997 20.558L104.46 30.338H104.749L108.212 20.558L108.5 20.2702H111.097L111.386 20.558V23.4343L106.769 34.9396ZM35.7605 34.653L35.4719 34.3651L35.4738 26.0309C35.4738 24.5933 34.9067 23.4786 33.1656 23.4423C32.2704 23.4192 31.246 23.4403 30.1517 23.4866L29.9883 23.6536L29.9904 34.3651L29.7016 34.653H26.2398L25.9512 34.3651V20.405L26.2398 20.1173L34.0305 20.0469C37.9335 20.0469 39.513 22.72 39.513 25.7372V34.3651L39.2245 34.653H35.7605Z" fill="white"/>
</g>
<defs>
<clipPath id="clip0_336_910">
<rect width="135.169" height="55" fill="white"/>
</clipPath>
</defs>
</svg>
