<svg width="16" height="16" viewBox="0 0 16 16" fill="none" xmlns="http://www.w3.org/2000/svg">
<g clip-path="url(#clip0_36_862)">
<path d="M7.625 2.5V1C7.625 0.900544 7.66451 0.805161 7.73484 0.734835C7.80516 0.664509 7.90054 0.625 8 0.625C8.09946 0.625 8.19484 0.664509 8.26517 0.734835C8.33549 0.805161 8.375 0.900544 8.375 1V2.5C8.375 2.59946 8.33549 2.69484 8.26517 2.76517C8.19484 2.83549 8.09946 2.875 8 2.875C7.90054 2.875 7.80516 2.83549 7.73484 2.76517C7.66451 2.69484 7.625 2.59946 7.625 2.5ZM11.875 8C11.875 8.7664 11.6477 9.51559 11.2219 10.1528C10.7962 10.7901 10.191 11.2867 9.4829 11.58C8.77483 11.8733 7.9957 11.9501 7.24403 11.8005C6.49235 11.651 5.80189 11.282 5.25996 10.74C4.71803 10.1981 4.34897 9.50765 4.19946 8.75597C4.04994 8.0043 4.12668 7.22517 4.41997 6.5171C4.71326 5.80904 5.20993 5.20385 5.84717 4.77806C6.48441 4.35226 7.2336 4.125 8 4.125C9.02736 4.12616 10.0123 4.53479 10.7388 5.26124C11.4652 5.98769 11.8738 6.97264 11.875 8ZM11.125 8C11.125 7.38193 10.9417 6.77775 10.5983 6.26384C10.255 5.74994 9.7669 5.3494 9.19589 5.11288C8.62487 4.87635 7.99653 4.81447 7.39034 4.93505C6.78415 5.05562 6.22733 5.35325 5.79029 5.79029C5.35325 6.22733 5.05562 6.78415 4.93505 7.39034C4.81447 7.99653 4.87635 8.62487 5.11288 9.19589C5.3494 9.7669 5.74994 10.255 6.26384 10.5983C6.77775 10.9417 7.38193 11.125 8 11.125C8.8285 11.124 9.62278 10.7944 10.2086 10.2086C10.7944 9.62278 11.124 8.8285 11.125 8ZM3.735 4.265C3.76933 4.30184 3.81073 4.33139 3.85673 4.35189C3.90273 4.37239 3.95239 4.38341 4.00274 4.3843C4.05309 4.38518 4.1031 4.37592 4.1498 4.35706C4.19649 4.3382 4.23891 4.31013 4.27452 4.27452C4.31013 4.23891 4.3382 4.19649 4.35706 4.1498C4.37592 4.1031 4.38518 4.05309 4.3843 4.00274C4.38341 3.95239 4.37239 3.90273 4.35189 3.85673C4.33139 3.81073 4.30184 3.76933 4.265 3.735L3.265 2.735C3.19391 2.66876 3.09989 2.6327 3.00274 2.63441C2.90559 2.63613 2.8129 2.67548 2.74419 2.74419C2.67548 2.8129 2.63613 2.90559 2.63441 3.00274C2.6327 3.09989 2.66876 3.19391 2.735 3.265L3.735 4.265ZM3.735 11.735L2.735 12.735C2.69816 12.7693 2.66861 12.8107 2.64811 12.8567C2.62761 12.9027 2.61659 12.9524 2.6157 13.0027C2.61482 13.0531 2.62408 13.1031 2.64294 13.1498C2.6618 13.1965 2.68987 13.2389 2.72548 13.2745C2.76109 13.3101 2.80351 13.3382 2.8502 13.3571C2.8969 13.3759 2.94691 13.3852 2.99726 13.3843C3.04761 13.3834 3.09727 13.3724 3.14327 13.3519C3.18927 13.3314 3.23067 13.3018 3.265 13.265L4.265 12.265C4.30184 12.2307 4.33139 12.1893 4.35189 12.1433C4.37239 12.0973 4.38341 12.0476 4.3843 11.9973C4.38518 11.9469 4.37592 11.8969 4.35706 11.8502C4.3382 11.8035 4.31013 11.7611 4.27452 11.7255C4.23891 11.6899 4.19649 11.6618 4.1498 11.6429C4.1031 11.6241 4.05309 11.6148 4.00274 11.6157C3.95239 11.6166 3.90273 11.6276 3.85673 11.6481C3.81073 11.6686 3.76933 11.6982 3.735 11.735ZM12 4.375C12.0994 4.37491 12.1947 4.33535 12.265 4.265L13.265 3.265C13.3312 3.19391 13.3673 3.09989 13.3656 3.00274C13.3639 2.90559 13.3245 2.8129 13.2558 2.74419C13.1871 2.67548 13.0944 2.63613 12.9973 2.63441C12.9001 2.6327 12.8061 2.66876 12.735 2.735L11.735 3.735C11.6826 3.78744 11.647 3.85423 11.6325 3.92693C11.6181 3.99963 11.6255 4.07498 11.6539 4.14346C11.6822 4.21194 11.7302 4.27049 11.7918 4.3117C11.8534 4.35291 11.9259 4.37493 12 4.375ZM12.265 11.735C12.1939 11.6688 12.0999 11.6327 12.0027 11.6344C11.9056 11.6361 11.8129 11.6755 11.7442 11.7442C11.6755 11.8129 11.6361 11.9056 11.6344 12.0027C11.6327 12.0999 11.6688 12.1939 11.735 12.265L12.735 13.265C12.8061 13.3312 12.9001 13.3673 12.9973 13.3656C13.0944 13.3639 13.1871 13.3245 13.2558 13.2558C13.3245 13.1871 13.3639 13.0944 13.3656 12.9973C13.3673 12.9001 13.3312 12.8061 13.265 12.735L12.265 11.735ZM2.875 8C2.875 7.90054 2.83549 7.80516 2.76517 7.73484C2.69484 7.66451 2.59946 7.625 2.5 7.625H1C0.900544 7.625 0.805161 7.66451 0.734835 7.73484C0.664509 7.80516 0.625 7.90054 0.625 8C0.625 8.09946 0.664509 8.19484 0.734835 8.26517C0.805161 8.33549 0.900544 8.375 1 8.375H2.5C2.59946 8.375 2.69484 8.33549 2.76517 8.26517C2.83549 8.19484 2.875 8.09946 2.875 8ZM8 13.125C7.90054 13.125 7.80516 13.1645 7.73484 13.2348C7.66451 13.3052 7.625 13.4005 7.625 13.5V15C7.625 15.0995 7.66451 15.1948 7.73484 15.2652C7.80516 15.3355 7.90054 15.375 8 15.375C8.09946 15.375 8.19484 15.3355 8.26517 15.2652C8.33549 15.1948 8.375 15.0995 8.375 15V13.5C8.375 13.4005 8.33549 13.3052 8.26517 13.2348C8.19484 13.1645 8.09946 13.125 8 13.125ZM15 7.625H13.5C13.4005 7.625 13.3052 7.66451 13.2348 7.73484C13.1645 7.80516 13.125 7.90054 13.125 8C13.125 8.09946 13.1645 8.19484 13.2348 8.26517C13.3052 8.33549 13.4005 8.375 13.5 8.375H15C15.0995 8.375 15.1948 8.33549 15.2652 8.26517C15.3355 8.19484 15.375 8.09946 15.375 8C15.375 7.90054 15.3355 7.80516 15.2652 7.73484C15.1948 7.66451 15.0995 7.625 15 7.625Z" fill="white"/>
</g>
<defs>
<clipPath id="clip0_36_862">
<rect width="16" height="16" fill="white"/>
</clipPath>
</defs>
</svg>
